<svg width="258" height="142" viewBox="0 0 258 142" fill="none" xmlns="http://www.w3.org/2000/svg">
<rect width="258" height="142" rx="32" fill="white"/>
<circle cx="50" cy="71" r="26" fill="#DAFF47"/>
<path d="M47 78C47 78.75 46.79 79.46 46.42 80.06C45.73 81.22 44.46 82 43 82C41.54 82 40.27 81.22 39.58 80.06C39.21 79.46 39 78.75 39 78C39 75.79 40.79 74 43 74C45.21 74 47 75.79 47 78Z" stroke="#172342" stroke-width="1.5" stroke-miterlimit="10" stroke-linecap="round" stroke-linejoin="round"/>
<path d="M41.4414 77.9995L42.4314 78.9895L44.5614 77.0195" stroke="#172342" stroke-width="1.5" stroke-linecap="round" stroke-linejoin="round"/>
<path d="M55.7514 66.05C55.5114 66.01 55.2614 66 55.0014 66H45.0014C44.7214 66 44.4514 66.02 44.1914 66.06C44.3314 65.78 44.5314 65.52 44.7714 65.28L48.0214 62.02C49.3914 60.66 51.6114 60.66 52.9814 62.02L54.7314 63.79C55.3714 64.42 55.7114 65.22 55.7514 66.05Z" stroke="#172342" stroke-width="1.5" stroke-linecap="round" stroke-linejoin="round"/>
<path d="M60 71V76C60 79 58 81 55 81H45.63C45.94 80.74 46.21 80.42 46.42 80.06C46.79 79.46 47 78.75 47 78C47 75.79 45.21 74 43 74C41.8 74 40.73 74.53 40 75.36V71C40 68.28 41.64 66.38 44.19 66.06C44.45 66.02 44.72 66 45 66H55C55.26 66 55.51 66.01 55.75 66.05C58.33 66.35 60 68.26 60 71Z" stroke="#172342" stroke-width="1.5" stroke-linecap="round" stroke-linejoin="round"/>
<path d="M60 71.5H57C55.9 71.5 55 72.4 55 73.5C55 74.6 55.9 75.5 57 75.5H60" stroke="#172342" stroke-width="1.5" stroke-linecap="round" stroke-linejoin="round"/>
<path opacity="0.6" d="M98.959 32.1455H96.1973V40H94.9805V32.1455H92.1982V31.0244H98.959V32.1455ZM98.5215 36.917C98.5215 36.3018 98.6605 35.748 98.9385 35.2559C99.221 34.7591 99.613 34.3672 100.114 34.0801C100.62 33.7884 101.194 33.6426 101.837 33.6426C102.479 33.6426 103.056 33.7884 103.566 34.0801C104.077 34.3672 104.471 34.7591 104.749 35.2559C105.032 35.748 105.173 36.3018 105.173 36.917C105.173 37.5231 105.029 38.0745 104.742 38.5713C104.46 39.068 104.065 39.46 103.56 39.7471C103.058 40.0296 102.484 40.1709 101.837 40.1709C101.203 40.1709 100.634 40.0296 100.128 39.7471C99.6266 39.46 99.2324 39.0703 98.9453 38.5781C98.6628 38.0814 98.5215 37.5277 98.5215 36.917ZM99.7246 36.917C99.7246 37.555 99.9229 38.0837 100.319 38.5029C100.716 38.9222 101.222 39.1318 101.837 39.1318C102.47 39.1318 102.985 38.9222 103.382 38.5029C103.783 38.0837 103.983 37.555 103.983 36.917C103.983 36.2744 103.785 35.7412 103.389 35.3174C102.992 34.8936 102.475 34.6816 101.837 34.6816C101.222 34.6816 100.716 34.8936 100.319 35.3174C99.9229 35.7412 99.7246 36.2744 99.7246 36.917ZM109.575 34.791H108.358V40H107.196V34.791H105.993V33.8271H107.196V32.1865H108.358V33.8271H109.575V34.791ZM116.746 33.8271V40H115.652V38.9062C115.447 39.2891 115.133 39.5967 114.709 39.8291C114.285 40.057 113.807 40.1709 113.273 40.1709C112.704 40.1709 112.196 40.0365 111.749 39.7676C111.307 39.4941 110.963 39.1136 110.717 38.626C110.471 38.1338 110.348 37.5687 110.348 36.9307C110.348 36.279 110.475 35.7048 110.73 35.208C110.99 34.7067 111.346 34.3216 111.797 34.0527C112.248 33.7793 112.768 33.6426 113.355 33.6426C113.88 33.6426 114.342 33.7474 114.743 33.957C115.144 34.1667 115.456 34.4538 115.68 34.8184L115.782 33.8271H116.746ZM113.526 39.1182C114.132 39.1182 114.622 38.9154 114.996 38.5098C115.37 38.1042 115.557 37.5596 115.557 36.876C115.557 36.2152 115.372 35.6865 115.003 35.29C114.634 34.8936 114.151 34.6953 113.554 34.6953C112.938 34.6953 112.449 34.8981 112.084 35.3037C111.719 35.7093 111.537 36.2425 111.537 36.9033C111.537 37.5641 111.719 38.0996 112.084 38.5098C112.449 38.9154 112.929 39.1182 113.526 39.1182ZM118.667 30.3955H119.829V40H118.667V30.3955ZM124.867 33.4785C124.867 32.6855 125.147 32.0498 125.708 31.5713C126.269 31.0882 127.007 30.8467 127.923 30.8467C128.52 30.8467 129.049 30.9538 129.509 31.168C129.974 31.3822 130.334 31.6829 130.589 32.0703C130.844 32.4577 130.972 32.902 130.972 33.4033H129.728C129.718 32.9476 129.545 32.583 129.208 32.3096C128.875 32.0316 128.433 31.8926 127.882 31.8926C127.349 31.8926 126.923 32.027 126.604 32.2959C126.289 32.5602 126.132 32.9066 126.132 33.335C126.132 33.7725 126.266 34.0869 126.535 34.2783C126.809 34.4697 127.155 34.6178 127.574 34.7227L129.085 35.126C129.655 35.2673 130.149 35.5316 130.568 35.9189C130.988 36.3063 131.197 36.8464 131.197 37.5391C131.197 38.3411 130.903 38.9814 130.315 39.46C129.728 39.9339 128.944 40.1709 127.964 40.1709C127.021 40.1709 126.25 39.943 125.653 39.4873C125.056 39.027 124.73 38.3958 124.676 37.5938H125.947C125.956 38.0768 126.152 38.4574 126.535 38.7354C126.918 39.0088 127.408 39.1455 128.005 39.1455C128.602 39.1455 129.074 39.0111 129.42 38.7422C129.766 38.4688 129.939 38.1042 129.939 37.6484C129.939 37.2292 129.812 36.9215 129.557 36.7256C129.306 36.5296 128.989 36.3747 128.606 36.2607L127.082 35.8711C126.449 35.7116 125.92 35.4404 125.496 35.0576C125.077 34.6748 124.867 34.1484 124.867 33.4785ZM138.594 33.8271V40H137.5V38.9062C137.295 39.2891 136.98 39.5967 136.557 39.8291C136.133 40.057 135.654 40.1709 135.121 40.1709C134.551 40.1709 134.043 40.0365 133.597 39.7676C133.155 39.4941 132.811 39.1136 132.564 38.626C132.318 38.1338 132.195 37.5687 132.195 36.9307C132.195 36.279 132.323 35.7048 132.578 35.208C132.838 34.7067 133.193 34.3216 133.645 34.0527C134.096 33.7793 134.615 33.6426 135.203 33.6426C135.727 33.6426 136.19 33.7474 136.591 33.957C136.992 34.1667 137.304 34.4538 137.527 34.8184L137.63 33.8271H138.594ZM135.374 39.1182C135.98 39.1182 136.47 38.9154 136.844 38.5098C137.217 38.1042 137.404 37.5596 137.404 36.876C137.404 36.2152 137.22 35.6865 136.851 35.29C136.481 34.8936 135.998 34.6953 135.401 34.6953C134.786 34.6953 134.296 34.8981 133.932 35.3037C133.567 35.7093 133.385 36.2425 133.385 36.9033C133.385 37.5641 133.567 38.0996 133.932 38.5098C134.296 38.9154 134.777 39.1182 135.374 39.1182ZM140.979 33.8271L141.704 35.7754C141.927 36.3724 142.148 36.9671 142.367 37.5596C142.59 38.152 142.739 38.5553 142.812 38.7695C142.894 38.5462 143.046 38.1383 143.27 37.5459C143.497 36.9535 143.728 36.3633 143.96 35.7754L144.732 33.8271H145.949L143.372 40H142.21L139.722 33.8271H140.979ZM147.706 32.3164C147.465 32.3164 147.262 32.2344 147.098 32.0703C146.934 31.9062 146.852 31.7035 146.852 31.4619C146.852 31.2295 146.934 31.0335 147.098 30.874C147.262 30.7145 147.465 30.6348 147.706 30.6348C147.957 30.6348 148.162 30.7145 148.321 30.874C148.481 31.0335 148.561 31.2295 148.561 31.4619C148.561 31.6943 148.481 31.8949 148.321 32.0635C148.166 32.2321 147.961 32.3164 147.706 32.3164ZM147.132 33.8271H148.294V40H147.132V33.8271ZM153.373 33.6426C154.075 33.6426 154.635 33.8659 155.055 34.3125C155.474 34.7546 155.684 35.3766 155.684 36.1787V40H154.508V36.4453C154.508 35.2786 154.036 34.6953 153.093 34.6953C152.578 34.6953 152.17 34.8503 151.869 35.1602C151.573 35.4655 151.425 35.8597 151.425 36.3428V39.9863H150.263V33.8271H151.233L151.343 34.6953C151.53 34.3763 151.808 34.1211 152.177 33.9297C152.546 33.7383 152.945 33.6426 153.373 33.6426ZM163.477 33.8271V39.9727C163.477 40.8704 163.192 41.5882 162.622 42.126C162.052 42.6683 161.287 42.9395 160.325 42.9395C159.487 42.9395 158.792 42.723 158.24 42.29C157.689 41.8571 157.361 41.2624 157.256 40.5059H158.404C158.495 40.9525 158.712 41.2988 159.054 41.5449C159.396 41.7956 159.819 41.9209 160.325 41.9209C160.959 41.9209 161.449 41.7477 161.795 41.4014C162.141 41.055 162.314 40.5879 162.314 40V38.7012C162.1 39.0566 161.795 39.3346 161.398 39.5352C161.007 39.7311 160.56 39.8291 160.059 39.8291C159.48 39.8291 158.967 39.6969 158.521 39.4326C158.078 39.1683 157.739 38.8037 157.502 38.3389C157.265 37.8695 157.146 37.3454 157.146 36.7666C157.146 36.1787 157.267 35.6478 157.509 35.1738C157.75 34.6953 158.094 34.3216 158.541 34.0527C158.992 33.7793 159.512 33.6426 160.1 33.6426C160.615 33.6426 161.066 33.7474 161.453 33.957C161.84 34.1667 162.141 34.4583 162.355 34.832L162.424 33.8271H163.477ZM160.257 38.8105C160.845 38.8105 161.321 38.6123 161.686 38.2158C162.055 37.8193 162.239 37.3271 162.239 36.7393C162.239 36.1514 162.057 35.6592 161.692 35.2627C161.332 34.8662 160.854 34.668 160.257 34.668C159.669 34.668 159.202 34.8662 158.855 35.2627C158.509 35.6592 158.336 36.1559 158.336 36.7529C158.336 37.3499 158.511 37.8421 158.862 38.2295C159.213 38.6169 159.678 38.8105 160.257 38.8105ZM175.61 33.6426C176.262 33.6426 176.791 33.8408 177.196 34.2373C177.606 34.6338 177.812 35.1966 177.812 35.9258V40.0137H176.663V36.1787C176.663 35.6637 176.542 35.2809 176.301 35.0303C176.064 34.7796 175.736 34.6543 175.316 34.6543C174.861 34.6543 174.498 34.8092 174.229 35.1191C173.965 35.4245 173.833 35.7959 173.833 36.2334V40.0137H172.685V36.1787C172.685 35.7048 172.564 35.3333 172.322 35.0645C172.081 34.791 171.743 34.6543 171.311 34.6543C170.873 34.6543 170.52 34.8092 170.251 35.1191C169.987 35.4245 169.854 35.7913 169.854 36.2197V40.0137H168.692V33.8271H169.731L169.813 34.6133C169.991 34.3125 170.24 34.0755 170.559 33.9023C170.882 33.7292 171.235 33.6426 171.618 33.6426C172.083 33.6426 172.493 33.7565 172.849 33.9844C173.204 34.2077 173.457 34.5085 173.607 34.8867C173.776 34.4948 174.038 34.1895 174.394 33.9707C174.749 33.752 175.155 33.6426 175.61 33.6426ZM185.68 33.8271V40H184.586V38.9062C184.381 39.2891 184.066 39.5967 183.643 39.8291C183.219 40.057 182.74 40.1709 182.207 40.1709C181.637 40.1709 181.129 40.0365 180.683 39.7676C180.241 39.4941 179.896 39.1136 179.65 38.626C179.404 38.1338 179.281 37.5687 179.281 36.9307C179.281 36.279 179.409 35.7048 179.664 35.208C179.924 34.7067 180.279 34.3216 180.73 34.0527C181.182 33.7793 181.701 33.6426 182.289 33.6426C182.813 33.6426 183.276 33.7474 183.677 33.957C184.078 34.1667 184.39 34.4538 184.613 34.8184L184.716 33.8271H185.68ZM182.46 39.1182C183.066 39.1182 183.556 38.9154 183.93 38.5098C184.303 38.1042 184.49 37.5596 184.49 36.876C184.49 36.2152 184.306 35.6865 183.937 35.29C183.567 34.8936 183.084 34.6953 182.487 34.6953C181.872 34.6953 181.382 34.8981 181.018 35.3037C180.653 35.7093 180.471 36.2425 180.471 36.9033C180.471 37.5641 180.653 38.0996 181.018 38.5098C181.382 38.9154 181.863 39.1182 182.46 39.1182ZM193.582 30.3955V40H192.632L192.529 38.8926C192.333 39.2754 192.023 39.5853 191.6 39.8223C191.176 40.0547 190.697 40.1709 190.164 40.1709C189.585 40.1709 189.07 40.0365 188.619 39.7676C188.168 39.4941 187.815 39.1113 187.56 38.6191C187.309 38.1224 187.184 37.5505 187.184 36.9033C187.184 36.2607 187.311 35.6934 187.566 35.2012C187.826 34.7044 188.182 34.3216 188.633 34.0527C189.084 33.7793 189.599 33.6426 190.178 33.6426C190.693 33.6426 191.148 33.7406 191.545 33.9365C191.941 34.1325 192.247 34.4036 192.461 34.75V30.3955H193.582ZM190.362 39.1182C190.968 39.1182 191.458 38.9154 191.832 38.5098C192.206 38.1042 192.393 37.5596 192.393 36.876C192.393 36.2152 192.208 35.6865 191.839 35.29C191.47 34.8936 190.987 34.6953 190.39 34.6953C189.774 34.6953 189.285 34.8981 188.92 35.3037C188.555 35.7093 188.373 36.2425 188.373 36.9033C188.373 37.5641 188.555 38.0996 188.92 38.5098C189.285 38.9154 189.765 39.1182 190.362 39.1182ZM201.122 38.1543C200.981 38.7604 200.639 39.248 200.097 39.6172C199.554 39.9863 198.921 40.1709 198.196 40.1709C197.572 40.1709 197.021 40.0342 196.542 39.7607C196.068 39.4827 195.699 39.0977 195.435 38.6055C195.175 38.1087 195.045 37.5368 195.045 36.8896C195.045 36.2471 195.177 35.6797 195.441 35.1875C195.71 34.6908 196.079 34.3102 196.549 34.0459C197.023 33.777 197.558 33.6426 198.155 33.6426C198.743 33.6426 199.258 33.7679 199.7 34.0186C200.142 34.2646 200.486 34.6087 200.732 35.0508C200.983 35.4928 201.108 35.9987 201.108 36.5684C201.108 36.8783 201.09 37.113 201.054 37.2725H196.193C196.212 37.8604 196.405 38.332 196.774 38.6875C197.144 39.0384 197.618 39.2139 198.196 39.2139C198.625 39.2139 198.998 39.1182 199.317 38.9268C199.641 38.7354 199.864 38.4779 199.987 38.1543H201.122ZM199.933 36.4316C199.924 35.8802 199.755 35.4427 199.427 35.1191C199.099 34.791 198.67 34.627 198.142 34.627C197.581 34.627 197.123 34.791 196.768 35.1191C196.412 35.4427 196.225 35.8802 196.207 36.4316H199.933Z" fill="#172342"/>
<path d="M104.125 83.25V86.1406H101.094V83.2188C99.1354 82.9479 97.4219 82.2552 95.9531 81.1406C94.4844 80.0156 93.4219 78.4479 92.7656 76.4375L95.9688 74.6875C96.7604 77.6458 98.4688 79.401 101.094 79.9531V72.9531C98.9479 72.4219 97.3438 71.6302 96.2812 70.5781C95.2188 69.5156 94.6875 68.1094 94.6875 66.3594C94.6875 64.8698 95.2812 63.5521 96.4688 62.4062C97.6562 61.25 99.1979 60.5625 101.094 60.3438V57.4688H104.125V60.4375C105.635 60.6979 106.953 61.2865 108.078 62.2031C109.203 63.1198 110.021 64.2917 110.531 65.7188L107.484 67.3125C106.911 65.4375 105.792 64.2552 104.125 63.7656V70.2656C108.823 71.1823 111.172 73.2917 111.172 76.5938C111.172 78.4375 110.542 79.9583 109.281 81.1562C108.021 82.3438 106.302 83.0417 104.125 83.25ZM101.094 69.5938V63.5469C100.146 63.6823 99.401 64.0052 98.8594 64.5156C98.3177 65.026 98.0469 65.6406 98.0469 66.3594C98.0469 67.1615 98.2969 67.8177 98.7969 68.3281C99.3073 68.8385 100.073 69.2604 101.094 69.5938ZM107.812 76.9219C107.812 76.0781 107.526 75.3906 106.953 74.8594C106.391 74.3281 105.448 73.8958 104.125 73.5625V80.0312C105.271 79.8958 106.172 79.5417 106.828 78.9688C107.484 78.3854 107.812 77.7031 107.812 76.9219ZM112.859 76.5938L116.062 75.1562C116.135 76.6354 116.651 77.8333 117.609 78.75C118.568 79.6667 119.781 80.125 121.25 80.125C122.625 80.125 123.76 79.6979 124.656 78.8438C125.562 77.9896 126.016 76.8906 126.016 75.5469C126.016 74.1927 125.578 73.099 124.703 72.2656C123.828 71.4219 122.708 71 121.344 71C120.062 71 119.047 71.375 118.297 72.125L116.375 69.7188L123.422 63.7969H113.812V60.5938H128.375V63.3125L121.812 68.7656C122.177 68.6927 122.531 68.6562 122.875 68.6562C123.656 68.6562 124.432 68.8177 125.203 69.1406C125.974 69.4531 126.667 69.8906 127.281 70.4531C127.906 71.0156 128.411 71.7396 128.797 72.625C129.182 73.5 129.375 74.4531 129.375 75.4844C129.375 77.776 128.609 79.6562 127.078 81.125C125.557 82.5833 123.615 83.3125 121.25 83.3125C118.969 83.3125 117.083 82.6979 115.594 81.4688C114.115 80.2396 113.203 78.6146 112.859 76.5938ZM131.688 60.5938H146.562V63.4844C144.146 65.0573 142.344 67 141.156 69.3125C139.979 71.625 139.391 74.4688 139.391 77.8438C139.391 79.3438 139.521 81.0625 139.781 83H136C135.812 81.5312 135.719 80.125 135.719 78.7812C135.719 75.5208 136.255 72.6302 137.328 70.1094C138.411 67.5781 139.984 65.474 142.047 63.7969H131.688V60.5938ZM164.516 60.5938V63.7969H153.484C153.484 65.5677 153.25 67.6927 152.781 70.1719C153.375 69.474 154.151 68.9115 155.109 68.4844C156.078 68.0469 157.094 67.8281 158.156 67.8281C160.323 67.8281 162.109 68.4896 163.516 69.8125C164.932 71.125 165.641 72.9062 165.641 75.1562C165.641 77.5521 164.891 79.5104 163.391 81.0312C161.901 82.5521 159.88 83.3125 157.328 83.3125C155.901 83.3125 154.589 83.0625 153.391 82.5625C152.203 82.0521 151.208 81.2812 150.406 80.25C149.615 79.2188 149.146 78 149 76.5938L152.359 75.6406C152.547 77.0365 153.062 78.1354 153.906 78.9375C154.75 79.7292 155.891 80.125 157.328 80.125C158.849 80.125 160.052 79.6927 160.938 78.8281C161.833 77.9531 162.281 76.8385 162.281 75.4844C162.281 74.1198 161.844 73.0052 160.969 72.1406C160.104 71.276 158.943 70.8438 157.484 70.8438C156.495 70.8438 155.578 71.1094 154.734 71.6406C153.891 72.1615 153.312 72.8021 153 73.5625L149.328 72.7344C149.964 68.7031 150.281 64.6562 150.281 60.5938H164.516ZM168.891 79.1562H172.734V83H168.891V79.1562ZM176 76.5938C176 75.1562 176.37 73.8958 177.109 72.8125C177.859 71.7292 178.927 70.9635 180.312 70.5156C179.302 70.0573 178.542 69.4479 178.031 68.6875C177.531 67.9167 177.281 67.0365 177.281 66.0469C177.281 64.401 177.906 63.0312 179.156 61.9375C180.417 60.8333 182.083 60.2812 184.156 60.2812C186.229 60.2812 187.891 60.8333 189.141 61.9375C190.401 63.0312 191.031 64.401 191.031 66.0469C191.031 67.0365 190.776 67.9167 190.266 68.6875C189.766 69.4479 189.01 70.0573 188 70.5156C189.385 70.9635 190.448 71.7292 191.188 72.8125C191.938 73.8958 192.312 75.1562 192.312 76.5938C192.312 77.5 192.13 78.3594 191.766 79.1719C191.411 79.974 190.896 80.6875 190.219 81.3125C189.552 81.9271 188.693 82.4167 187.641 82.7812C186.599 83.1354 185.438 83.3125 184.156 83.3125C182.875 83.3125 181.708 83.1354 180.656 82.7812C179.615 82.4167 178.755 81.9271 178.078 81.3125C177.411 80.6875 176.896 79.974 176.531 79.1719C176.177 78.3594 176 77.5 176 76.5938ZM187.844 66.2031C187.844 65.3802 187.495 64.6927 186.797 64.1406C186.109 63.5885 185.229 63.3125 184.156 63.3125C183.083 63.3125 182.203 63.5885 181.516 64.1406C180.828 64.6927 180.484 65.3802 180.484 66.2031C180.484 67.1094 180.823 67.8438 181.5 68.4062C182.177 68.9583 183.062 69.2344 184.156 69.2344C185.26 69.2344 186.151 68.9531 186.828 68.3906C187.505 67.8281 187.844 67.099 187.844 66.2031ZM188.953 76.125C188.953 74.9896 188.505 74.0365 187.609 73.2656C186.724 72.5052 185.573 72.125 184.156 72.125C182.74 72.125 181.589 72.5052 180.703 73.2656C179.807 74.0365 179.359 74.9896 179.359 76.125C179.359 77.2917 179.797 78.25 180.672 79C181.547 79.75 182.708 80.125 184.156 80.125C185.604 80.125 186.766 79.75 187.641 79C188.516 78.25 188.953 77.2917 188.953 76.125ZM197.281 80.1875C195.635 78.1042 194.812 75.3073 194.812 71.7969C194.812 68.2865 195.635 65.4896 197.281 63.4062C198.927 61.3229 201.146 60.2812 203.938 60.2812C206.729 60.2812 208.943 61.3229 210.578 63.4062C212.224 65.4896 213.047 68.2865 213.047 71.7969C213.047 75.3073 212.224 78.1042 210.578 80.1875C208.943 82.2708 206.729 83.3125 203.938 83.3125C201.146 83.3125 198.927 82.2708 197.281 80.1875ZM208.188 77.9062C209.188 76.3229 209.688 74.2865 209.688 71.7969C209.688 69.3073 209.188 67.2708 208.188 65.6875C207.188 64.1042 205.771 63.3125 203.938 63.3125C202.073 63.3125 200.641 64.1042 199.641 65.6875C198.661 67.2396 198.172 69.276 198.172 71.7969C198.172 74.3385 198.661 76.3854 199.641 77.9375C200.63 79.5 202.062 80.2812 203.938 80.2812C205.771 80.2812 207.188 79.4896 208.188 77.9062ZM215.562 76.5938L218.922 75.6406C219.057 77.1094 219.536 78.224 220.359 78.9844C221.193 79.7448 222.312 80.125 223.719 80.125C225.427 80.125 226.74 79.4219 227.656 78.0156C228.573 76.6094 229.031 74.6354 229.031 72.0938C229.031 71.4479 229.021 71.0312 229 70.8438C228.562 72.1354 227.849 73.151 226.859 73.8906C225.87 74.6302 224.661 75 223.234 75C222.089 75 221.047 74.8021 220.109 74.4062C219.182 74 218.427 73.4635 217.844 72.7969C217.26 72.1198 216.812 71.3698 216.5 70.5469C216.198 69.7135 216.047 68.849 216.047 67.9531C216.047 65.6823 216.755 63.8385 218.172 62.4219C219.589 60.9948 221.385 60.2812 223.562 60.2812C226.583 60.2812 228.781 61.3802 230.156 63.5781C231.542 65.7656 232.234 68.5156 232.234 71.8281C232.234 74.9427 231.573 77.6406 230.25 79.9219C228.938 82.1823 226.708 83.3125 223.562 83.3125C221.312 83.3125 219.484 82.6823 218.078 81.4219C216.672 80.1615 215.833 78.5521 215.562 76.5938ZM228.047 67.6406C228.047 66.4323 227.641 65.4062 226.828 64.5625C226.026 63.7292 224.99 63.3125 223.719 63.3125C222.458 63.3125 221.422 63.7344 220.609 64.5781C219.807 65.4219 219.406 66.4948 219.406 67.7969C219.406 69.0573 219.797 70.0677 220.578 70.8281C221.37 71.5781 222.417 71.9531 223.719 71.9531C225 71.9531 226.042 71.5573 226.844 70.7656C227.646 69.9635 228.047 68.9219 228.047 67.6406Z" fill="#172342"/>
<g clip-path="url(#clip0_10702_2452)">
<path d="M110.334 103.833L103.776 110.39C103.446 110.72 103.281 110.885 103.091 110.947C102.924 111.001 102.744 111.001 102.576 110.947C102.386 110.885 102.221 110.72 101.891 110.39L99.6098 108.109C99.2798 107.779 99.1148 107.614 98.9245 107.552C98.7571 107.498 98.5768 107.498 98.4095 107.552C98.2192 107.614 98.0542 107.779 97.7242 108.109L93.667 112.166M110.334 103.833H104.5M110.334 103.833V109.666" stroke="#DAFF47" stroke-width="2" stroke-linecap="round" stroke-linejoin="round"/>
</g>
<path d="M119.584 104.678C120.119 104.678 120.592 104.787 121.002 105.006C121.416 105.225 121.734 105.531 121.957 105.926C122.18 106.316 122.291 106.76 122.291 107.256C122.291 107.584 122.242 107.896 122.145 108.193C122.051 108.49 121.943 108.742 121.822 108.949C121.705 109.156 121.547 109.416 121.348 109.729L119.508 112.5H118.395L120.305 109.682C120.059 109.779 119.766 109.826 119.426 109.822C118.922 109.822 118.469 109.715 118.066 109.5C117.668 109.285 117.355 108.988 117.129 108.609C116.906 108.227 116.795 107.791 116.795 107.303C116.795 106.799 116.914 106.348 117.152 105.949C117.395 105.547 117.727 105.234 118.148 105.012C118.574 104.789 119.053 104.678 119.584 104.678ZM117.82 107.291C117.82 107.779 117.979 108.174 118.295 108.475C118.615 108.775 119.02 108.926 119.508 108.926C120.012 108.926 120.43 108.771 120.762 108.463C121.094 108.154 121.26 107.752 121.26 107.256C121.26 106.76 121.1 106.361 120.779 106.061C120.463 105.76 120.057 105.609 119.561 105.609C119.057 105.609 118.641 105.768 118.312 106.084C117.984 106.4 117.82 106.803 117.82 107.291ZM123.656 112.646C123.422 112.646 123.23 112.572 123.082 112.424C122.938 112.275 122.865 112.098 122.865 111.891C122.865 111.676 122.938 111.492 123.082 111.34C123.23 111.184 123.422 111.105 123.656 111.105C123.879 111.105 124.064 111.182 124.213 111.334C124.361 111.486 124.436 111.672 124.436 111.891C124.436 112.098 124.361 112.275 124.213 112.424C124.064 112.572 123.879 112.646 123.656 112.646ZM127.16 111.551H130.283V112.5H125.637V111.744L128.361 108.709C128.643 108.396 128.865 108.1 129.029 107.818C129.193 107.533 129.275 107.227 129.275 106.898C129.275 106.516 129.146 106.203 128.889 105.961C128.635 105.719 128.299 105.598 127.881 105.598C127.432 105.598 127.072 105.732 126.803 106.002C126.537 106.271 126.404 106.609 126.404 107.016L126.416 107.186H125.42L125.408 106.969C125.408 106.52 125.516 106.121 125.73 105.773C125.949 105.426 126.25 105.154 126.633 104.959C127.016 104.764 127.447 104.666 127.928 104.666C128.393 104.666 128.805 104.758 129.164 104.941C129.523 105.125 129.801 105.383 129.996 105.715C130.195 106.047 130.295 106.424 130.295 106.846C130.295 107.318 130.188 107.742 129.973 108.117C129.762 108.488 129.492 108.861 129.164 109.236L127.16 111.551ZM132.211 112.5L138.164 104.678H139.008L133.043 112.5H132.211ZM131.408 106.453C131.408 106.148 131.484 105.863 131.637 105.598C131.789 105.328 132 105.113 132.27 104.953C132.543 104.793 132.852 104.713 133.195 104.713C133.539 104.713 133.846 104.793 134.115 104.953C134.385 105.113 134.592 105.326 134.736 105.592C134.885 105.854 134.959 106.141 134.959 106.453C134.959 106.766 134.887 107.055 134.742 107.32C134.602 107.582 134.396 107.791 134.127 107.947C133.857 108.104 133.551 108.182 133.207 108.182C132.863 108.182 132.553 108.104 132.275 107.947C132.002 107.791 131.789 107.58 131.637 107.314C131.484 107.045 131.408 106.758 131.408 106.453ZM132.211 106.477C132.211 106.723 132.303 106.943 132.486 107.139C132.674 107.33 132.91 107.426 133.195 107.426C133.484 107.426 133.719 107.328 133.898 107.133C134.078 106.934 134.168 106.707 134.168 106.453C134.168 106.195 134.078 105.969 133.898 105.773C133.719 105.578 133.48 105.48 133.184 105.48C132.895 105.48 132.658 105.574 132.475 105.762C132.291 105.949 132.203 106.188 132.211 106.477ZM136.008 110.941C136.008 110.637 136.082 110.352 136.23 110.086C136.383 109.816 136.596 109.602 136.869 109.441C137.143 109.281 137.451 109.201 137.795 109.201C138.139 109.201 138.445 109.281 138.715 109.441C138.988 109.602 139.199 109.814 139.348 110.08C139.496 110.342 139.57 110.629 139.57 110.941C139.57 111.254 139.496 111.541 139.348 111.803C139.199 112.061 138.99 112.268 138.721 112.424C138.455 112.58 138.15 112.658 137.807 112.658C137.463 112.658 137.154 112.58 136.881 112.424C136.607 112.268 136.393 112.059 136.236 111.797C136.084 111.531 136.008 111.246 136.008 110.941ZM136.811 110.941C136.811 111.195 136.9 111.422 137.08 111.621C137.26 111.816 137.494 111.914 137.783 111.914C138.072 111.914 138.307 111.816 138.486 111.621C138.666 111.422 138.756 111.195 138.756 110.941C138.756 110.684 138.666 110.457 138.486 110.262C138.311 110.066 138.076 109.969 137.783 109.969C137.486 109.969 137.248 110.066 137.068 110.262C136.889 110.457 136.803 110.684 136.811 110.941ZM146.092 105.059C145.814 105.059 145.609 105.113 145.477 105.223C145.344 105.332 145.262 105.461 145.23 105.609C145.199 105.754 145.184 105.936 145.184 106.154V107.209H146.479V108.035H145.184V112.5H144.188V108.035H143.227V107.209H144.188V105.961C144.188 104.801 144.764 104.221 145.916 104.221C146.131 104.221 146.318 104.236 146.479 104.268V105.094C146.389 105.07 146.26 105.059 146.092 105.059ZM149.953 107.162C150.129 107.162 150.297 107.178 150.457 107.209V108.059C150.367 108.043 150.242 108.035 150.082 108.035C149.602 108.035 149.23 108.178 148.969 108.463C148.711 108.748 148.582 109.143 148.582 109.646V112.5H147.586V107.209H148.465L148.582 108.012C148.672 107.738 148.84 107.529 149.086 107.385C149.336 107.236 149.625 107.162 149.953 107.162ZM151.072 109.857C151.072 109.33 151.191 108.855 151.43 108.434C151.672 108.008 152.008 107.672 152.438 107.426C152.871 107.176 153.363 107.051 153.914 107.051C154.465 107.051 154.959 107.176 155.396 107.426C155.834 107.672 156.172 108.008 156.41 108.434C156.652 108.855 156.773 109.33 156.773 109.857C156.773 110.377 156.65 110.85 156.404 111.275C156.162 111.701 155.824 112.037 155.391 112.283C154.961 112.525 154.469 112.646 153.914 112.646C153.371 112.646 152.883 112.525 152.449 112.283C152.02 112.037 151.682 111.703 151.436 111.281C151.193 110.855 151.072 110.381 151.072 109.857ZM152.104 109.857C152.104 110.404 152.273 110.857 152.613 111.217C152.953 111.576 153.387 111.756 153.914 111.756C154.457 111.756 154.898 111.576 155.238 111.217C155.582 110.857 155.754 110.404 155.754 109.857C155.754 109.307 155.584 108.85 155.244 108.486C154.904 108.123 154.461 107.941 153.914 107.941C153.387 107.941 152.953 108.123 152.613 108.486C152.273 108.85 152.104 109.307 152.104 109.857ZM163.98 107.051C164.539 107.051 164.992 107.221 165.34 107.561C165.691 107.9 165.867 108.383 165.867 109.008V112.512H164.883V109.225C164.883 108.783 164.779 108.455 164.572 108.24C164.369 108.025 164.088 107.918 163.729 107.918C163.338 107.918 163.027 108.051 162.797 108.316C162.57 108.578 162.457 108.896 162.457 109.271V112.512H161.473V109.225C161.473 108.818 161.369 108.5 161.162 108.27C160.955 108.035 160.666 107.918 160.295 107.918C159.92 107.918 159.617 108.051 159.387 108.316C159.16 108.578 159.047 108.893 159.047 109.26V112.512H158.051V107.209H158.941L159.012 107.883C159.164 107.625 159.377 107.422 159.65 107.273C159.928 107.125 160.23 107.051 160.559 107.051C160.957 107.051 161.309 107.148 161.613 107.344C161.918 107.535 162.135 107.793 162.264 108.117C162.408 107.781 162.633 107.52 162.938 107.332C163.242 107.145 163.59 107.051 163.98 107.051ZM170.344 104.268H171.34V112.5H170.344V104.268ZM178.143 107.209V112.5H177.205V111.562C177.029 111.891 176.76 112.154 176.396 112.354C176.033 112.549 175.623 112.646 175.166 112.646C174.678 112.646 174.242 112.531 173.859 112.301C173.48 112.066 173.186 111.74 172.975 111.322C172.764 110.9 172.658 110.416 172.658 109.869C172.658 109.311 172.768 108.818 172.986 108.393C173.209 107.963 173.514 107.633 173.9 107.402C174.287 107.168 174.732 107.051 175.236 107.051C175.686 107.051 176.082 107.141 176.426 107.32C176.77 107.5 177.037 107.746 177.229 108.059L177.316 107.209H178.143ZM175.383 111.744C175.902 111.744 176.322 111.57 176.643 111.223C176.963 110.875 177.123 110.408 177.123 109.822C177.123 109.256 176.965 108.803 176.648 108.463C176.332 108.123 175.918 107.953 175.406 107.953C174.879 107.953 174.459 108.127 174.146 108.475C173.834 108.822 173.678 109.279 173.678 109.846C173.678 110.412 173.834 110.871 174.146 111.223C174.459 111.57 174.871 111.744 175.383 111.744ZM181.535 112.646C180.918 112.646 180.41 112.498 180.012 112.201C179.617 111.904 179.404 111.512 179.373 111.023H180.346C180.369 111.297 180.486 111.508 180.697 111.656C180.908 111.805 181.188 111.879 181.535 111.879C181.879 111.879 182.146 111.811 182.338 111.674C182.529 111.537 182.625 111.344 182.625 111.094C182.625 110.848 182.549 110.672 182.396 110.566C182.244 110.457 182.049 110.377 181.811 110.326L180.873 110.109C180.408 110.004 180.064 109.826 179.842 109.576C179.623 109.326 179.514 109.021 179.514 108.662C179.514 108.174 179.697 107.783 180.064 107.49C180.436 107.197 180.916 107.051 181.506 107.051C182.107 107.051 182.594 107.201 182.965 107.502C183.34 107.803 183.535 108.201 183.551 108.697H182.578C182.57 108.424 182.465 108.209 182.262 108.053C182.062 107.896 181.807 107.818 181.494 107.818C181.197 107.818 180.961 107.885 180.785 108.018C180.613 108.15 180.527 108.336 180.527 108.574C180.527 108.797 180.596 108.959 180.732 109.061C180.873 109.162 181.057 109.236 181.283 109.283L182.35 109.523C182.791 109.621 183.119 109.801 183.334 110.062C183.549 110.32 183.656 110.633 183.656 111C183.656 111.504 183.463 111.904 183.076 112.201C182.693 112.498 182.18 112.646 181.535 112.646ZM187.477 108.035H186.434V112.5H185.438V108.035H184.406V107.209H185.438V105.803H186.434V107.209H187.477V108.035ZM197.379 107.051C197.938 107.051 198.391 107.221 198.738 107.561C199.09 107.9 199.266 108.383 199.266 109.008V112.512H198.281V109.225C198.281 108.783 198.178 108.455 197.971 108.24C197.768 108.025 197.486 107.918 197.127 107.918C196.736 107.918 196.426 108.051 196.195 108.316C195.969 108.578 195.855 108.896 195.855 109.271V112.512H194.871V109.225C194.871 108.818 194.768 108.5 194.561 108.27C194.354 108.035 194.064 107.918 193.693 107.918C193.318 107.918 193.016 108.051 192.785 108.316C192.559 108.578 192.445 108.893 192.445 109.26V112.512H191.449V107.209H192.34L192.41 107.883C192.562 107.625 192.775 107.422 193.049 107.273C193.326 107.125 193.629 107.051 193.957 107.051C194.355 107.051 194.707 107.148 195.012 107.344C195.316 107.535 195.533 107.793 195.662 108.117C195.807 107.781 196.031 107.52 196.336 107.332C196.641 107.145 196.988 107.051 197.379 107.051ZM200.525 109.857C200.525 109.33 200.645 108.855 200.883 108.434C201.125 108.008 201.461 107.672 201.891 107.426C202.324 107.176 202.816 107.051 203.367 107.051C203.918 107.051 204.412 107.176 204.85 107.426C205.287 107.672 205.625 108.008 205.863 108.434C206.105 108.855 206.227 109.33 206.227 109.857C206.227 110.377 206.104 110.85 205.857 111.275C205.615 111.701 205.277 112.037 204.844 112.283C204.414 112.525 203.922 112.646 203.367 112.646C202.824 112.646 202.336 112.525 201.902 112.283C201.473 112.037 201.135 111.703 200.889 111.281C200.646 110.855 200.525 110.381 200.525 109.857ZM201.557 109.857C201.557 110.404 201.727 110.857 202.066 111.217C202.406 111.576 202.84 111.756 203.367 111.756C203.91 111.756 204.352 111.576 204.691 111.217C205.035 110.857 205.207 110.404 205.207 109.857C205.207 109.307 205.037 108.85 204.697 108.486C204.357 108.123 203.914 107.941 203.367 107.941C202.84 107.941 202.406 108.123 202.066 108.486C201.727 108.85 201.557 109.307 201.557 109.857ZM210.17 107.051C210.771 107.051 211.252 107.242 211.611 107.625C211.971 108.004 212.15 108.537 212.15 109.225V112.5H211.143V109.453C211.143 108.453 210.738 107.953 209.93 107.953C209.488 107.953 209.139 108.086 208.881 108.352C208.627 108.613 208.5 108.951 208.5 109.365V112.488H207.504V107.209H208.336L208.43 107.953C208.59 107.68 208.828 107.461 209.145 107.297C209.461 107.133 209.803 107.051 210.17 107.051ZM216.27 108.035H215.227V112.5H214.23V108.035H213.199V107.209H214.23V105.803H215.227V107.209H216.27V108.035ZM217.383 104.268H218.379V107.93C218.539 107.656 218.773 107.441 219.082 107.285C219.391 107.129 219.725 107.051 220.084 107.051C220.686 107.051 221.162 107.242 221.514 107.625C221.865 108.004 222.041 108.537 222.041 109.225V112.5H221.045V109.453C221.045 108.91 220.93 108.525 220.699 108.299C220.473 108.068 220.184 107.953 219.832 107.953C219.434 107.953 219.092 108.076 218.807 108.322C218.521 108.564 218.379 108.912 218.379 109.365V112.5H217.383V104.268Z" fill="#172342"/>
<defs>
<clipPath id="clip0_10702_2452">
<rect width="20" height="20" fill="white" transform="translate(92 98)"/>
</clipPath>
</defs>
</svg>
